<?xml version="1.0" encoding="UTF-8" ?>
<!DOCTYPE svg PUBLIC "-//W3C//DTD SVG 1.1//EN" "http://www.w3.org/Graphics/SVG/1.1/DTD/svg11.dtd">
<svg width="360pt" height="145pt" viewBox="0 0 360 145" version="1.1" xmlns="http://www.w3.org/2000/svg">
<g id="#37424aff">
<path fill="#37424a" opacity="1.00" d=" M 7.82 21.03 C 8.85 15.52 9.91 10.02 10.94 4.50 C 26.12 4.44 41.30 4.60 56.48 4.42 C 57.63 9.93 58.87 15.44 59.68 21.02 C 59.23 21.23 58.31 21.64 57.85 21.85 C 55.91 18.65 54.39 15.06 51.44 12.60 C 49.23 10.56 46.36 9.53 43.54 8.67 C 43.45 23.76 43.55 38.86 43.48 53.95 C 43.58 56.09 43.38 58.51 44.69 60.34 C 46.30 62.71 51.15 61.28 50.45 65.23 C 39.33 65.21 28.20 65.37 17.08 65.15 C 17.15 64.51 17.30 63.23 17.37 62.59 C 19.17 62.08 21.23 61.99 22.70 60.71 C 24.15 58.80 23.96 56.26 24.03 53.99 C 23.95 38.91 24.04 23.83 23.98 8.75 C 17.08 10.05 12.46 15.80 9.81 21.92 C 9.31 21.70 8.32 21.26 7.82 21.03 Z" />
<path fill="#37424a" opacity="1.00" d=" M 303.63 26.46 C 310.78 19.07 318.31 12.03 325.79 4.97 C 325.72 10.98 325.76 16.99 325.75 23.00 C 329.13 23.00 332.50 23.00 335.88 23.02 C 335.59 24.17 335.30 25.33 335.02 26.49 C 331.92 26.49 328.83 26.50 325.73 26.54 C 325.82 34.35 325.65 42.16 325.80 49.96 C 326.10 53.07 326.14 57.03 329.00 59.00 C 330.84 60.28 333.04 59.35 335.01 58.96 C 335.01 59.69 335.03 61.14 335.03 61.86 C 329.88 66.21 322.49 68.43 315.99 66.04 C 312.91 64.97 310.73 62.24 309.84 59.17 C 308.26 53.91 309.40 48.39 309.26 43.01 C 309.12 37.51 309.50 32.02 309.53 26.52 C 307.56 26.51 305.59 26.49 303.63 26.46 Z" />
<path fill="#37424a" opacity="1.00" d=" M 187.85 21.42 C 189.78 17.42 193.33 13.76 198.07 13.73 C 201.27 13.19 205.16 15.40 205.05 18.95 C 205.46 21.34 203.46 23.82 201.08 24.02 C 197.36 24.51 194.54 20.33 190.80 21.73 C 194.06 23.45 197.71 24.87 199.96 27.95 C 203.91 32.90 203.75 40.77 199.28 45.35 C 196.35 48.52 192.20 50.13 188.06 50.95 C 187.10 50.96 187.41 51.91 187.52 52.51 C 191.83 51.88 196.53 52.17 200.17 54.81 C 207.72 60.03 207.21 72.64 200.04 77.99 C 192.49 84.02 182.12 84.16 172.97 82.98 C 168.57 82.16 162.99 80.66 161.46 75.88 C 160.51 73.15 161.95 70.59 163.73 68.63 C 159.12 64.97 157.91 58.02 160.91 52.98 C 162.35 50.39 165.04 48.95 167.59 47.66 C 160.63 42.92 160.04 31.88 166.44 26.44 C 172.25 21.41 180.47 20.31 187.85 21.42 M 180.42 24.66 C 177.69 25.51 176.93 28.63 176.57 31.12 C 176.06 35.83 175.83 40.89 177.78 45.32 C 179.54 49.03 185.82 48.77 187.16 44.84 C 188.98 39.59 188.82 33.71 187.44 28.37 C 186.80 25.31 183.31 23.53 180.42 24.66 M 169.25 50.34 C 168.11 51.30 167.52 52.71 166.71 53.92 C 167.82 55.77 169.55 57.52 171.93 57.21 C 177.15 56.46 181.70 53.37 186.97 52.80 C 183.22 50.89 178.86 51.89 174.92 50.70 C 173.06 50.41 171.06 49.33 169.25 50.34 M 183.33 69.61 C 178.25 71.13 172.88 72.20 167.62 70.86 C 167.30 75.81 172.25 78.51 176.43 79.35 C 181.36 80.16 186.96 80.15 191.20 77.14 C 193.57 75.61 194.58 71.75 192.21 69.77 C 189.67 67.58 186.18 68.93 183.33 69.61 Z" />
<path fill="#37424a" opacity="1.00" d=" M 61.97 25.96 C 67.89 21.00 76.25 20.47 83.58 21.63 C 88.82 22.55 94.65 25.40 96.04 31.00 C 97.94 39.72 95.49 48.86 97.56 57.55 C 97.96 59.72 100.19 59.62 101.89 59.33 C 101.86 59.98 101.80 61.28 101.78 61.93 C 96.55 68.38 84.19 68.46 80.91 60.01 C 78.41 62.56 75.64 65.04 72.15 66.11 C 67.10 67.85 60.65 67.28 57.08 62.91 C 53.26 58.29 54.55 50.85 59.14 47.20 C 65.30 41.99 73.21 39.65 80.42 36.31 C 80.08 33.21 80.35 29.91 79.01 27.02 C 77.13 23.62 71.24 24.46 70.18 28.14 C 69.67 31.25 70.61 34.57 69.35 37.54 C 67.40 41.77 60.30 42.01 58.36 37.65 C 56.69 33.54 58.61 28.63 61.97 25.96 M 73.34 47.51 C 72.28 51.05 71.66 55.93 75.10 58.40 C 76.86 58.84 78.98 58.43 79.48 56.42 C 80.60 51.02 80.17 45.42 80.23 39.92 C 77.06 41.47 74.30 44.02 73.34 47.51 Z" />
<path fill="#37424a" opacity="1.00" d=" M 101.33 31.54 C 109.34 28.54 117.07 24.83 124.50 20.61 C 124.50 22.79 124.49 24.96 124.46 27.13 C 127.42 24.46 130.78 21.87 134.88 21.42 C 139.49 20.88 144.87 21.15 148.34 24.65 C 151.37 27.56 151.84 32.02 151.99 35.99 C 152.08 43.01 151.92 50.04 152.01 57.06 C 152.07 58.58 152.17 60.45 153.56 61.40 C 155.40 62.32 158.23 62.41 157.70 65.23 C 150.21 65.26 142.73 65.25 135.25 65.24 C 135.26 55.80 135.23 46.36 135.27 36.92 C 135.20 34.33 135.30 31.43 133.66 29.25 C 131.65 27.33 127.52 27.74 126.66 30.66 C 125.56 33.97 126.11 37.55 125.99 40.98 C 126.15 46.99 125.71 53.03 126.19 59.02 C 126.26 62.55 132.00 61.35 131.23 65.23 C 122.00 65.26 112.77 65.26 103.54 65.23 C 102.87 61.50 107.92 62.82 108.69 59.87 C 109.87 54.66 108.97 49.24 109.27 43.95 C 109.05 41.42 109.96 38.17 107.72 36.32 C 105.75 34.53 103.48 33.12 101.33 31.54 Z" />
<path fill="#37424a" opacity="1.00" d=" M 217.95 23.93 C 225.47 19.64 236.30 19.94 242.32 26.68 C 245.67 30.23 246.83 35.21 246.88 39.97 C 238.60 40.08 230.31 39.88 222.02 40.09 C 222.48 47.97 227.78 56.17 236.05 57.32 C 240.06 58.24 243.92 56.31 246.80 53.65 C 246.78 55.10 246.77 56.56 246.78 58.02 C 243.37 61.89 239.06 65.16 233.94 66.28 C 226.02 68.41 216.86 65.84 211.66 59.37 C 202.78 48.88 205.83 30.61 217.95 23.93 M 224.04 27.05 C 222.24 29.94 222.29 33.48 221.92 36.76 C 225.53 36.65 229.34 37.19 232.79 35.88 C 234.95 33.66 234.36 30.07 233.36 27.44 C 231.91 23.66 225.99 23.77 224.04 27.05 Z" />
<path fill="#37424a" opacity="1.00" d=" M 248.72 31.63 C 256.63 28.50 264.37 24.94 271.77 20.73 C 271.76 23.02 271.74 25.31 271.69 27.60 C 274.47 24.61 277.93 22.03 282.08 21.46 C 287.27 20.74 293.70 21.30 296.93 26.01 C 300.29 31.01 299.03 37.30 299.25 42.96 C 299.45 48.38 298.76 53.88 299.72 59.25 C 300.10 61.71 302.73 62.21 304.71 62.79 C 304.75 63.38 304.84 64.57 304.88 65.16 C 297.50 65.35 290.13 65.21 282.75 65.24 C 282.75 56.17 282.74 47.10 282.76 38.03 C 282.68 35.44 282.78 32.73 281.78 30.29 C 280.34 27.13 274.61 27.38 273.94 31.02 C 272.67 36.58 273.46 42.35 273.25 48.00 C 273.41 51.97 272.71 56.13 273.98 59.98 C 274.63 61.92 276.88 62.11 278.52 62.76 C 278.50 63.59 278.48 64.42 278.46 65.26 C 269.46 65.30 260.46 65.12 251.46 65.36 C 251.35 64.50 251.26 63.64 251.19 62.78 C 252.91 62.15 255.37 62.06 256.04 60.00 C 257.26 56.13 256.59 51.97 256.76 47.98 C 256.62 44.56 257.16 41.04 256.27 37.70 C 254.45 34.96 251.30 33.54 248.72 31.63 Z" />
<path fill="#37424a" opacity="1.00" d=" M 256.59 76.58 C 258.73 74.17 262.77 72.05 265.64 74.46 C 268.07 76.34 267.29 80.32 264.84 81.81 C 261.87 83.70 258.52 84.87 255.36 86.39 C 252.01 87.87 248.75 89.89 244.97 89.93 C 248.68 85.34 252.65 80.97 256.59 76.58 Z" />
<path fill="#37424a" opacity="1.00" d=" M 113.69 78.67 C 124.59 74.47 137.23 75.71 147.45 81.20 C 147.54 87.29 147.51 93.39 147.47 99.49 C 146.88 99.37 145.69 99.13 145.10 99.00 C 143.55 94.00 142.00 88.71 138.14 84.94 C 133.83 80.23 126.23 78.11 120.52 81.46 C 116.06 84.25 114.67 89.77 113.82 94.62 C 112.61 103.30 112.71 112.16 113.74 120.86 C 114.47 125.97 115.66 131.73 120.18 134.87 C 125.38 138.17 132.39 136.79 137.03 133.14 C 142.56 128.87 145.38 122.07 146.54 115.35 C 147.09 115.31 148.18 115.21 148.72 115.17 C 148.79 121.80 148.72 128.44 148.77 135.07 C 138.92 139.68 127.54 142.13 116.83 139.23 C 107.39 136.70 98.44 130.27 94.87 120.92 C 92.10 113.53 92.07 105.16 94.66 97.71 C 97.74 88.94 105.11 82.02 113.69 78.67 Z" />
<path fill="#37424a" opacity="1.00" d=" M 214.71 81.67 C 219.83 77.49 227.29 75.86 233.45 78.59 C 236.96 80.14 239.46 84.06 238.46 87.93 C 237.73 91.56 233.27 92.81 230.13 91.70 C 226.21 90.01 225.84 84.55 221.93 82.92 C 219.15 81.85 216.06 84.94 217.35 87.68 C 218.90 90.82 221.43 93.35 223.04 96.47 C 225.60 96.50 228.16 96.50 230.72 96.49 C 230.74 97.65 230.76 98.81 230.79 99.98 C 228.19 99.99 225.59 100.00 223.00 100.01 C 223.01 109.35 222.99 118.69 222.99 128.03 C 223.13 130.24 222.94 132.75 224.40 134.59 C 225.59 135.83 227.47 135.78 229.02 136.25 C 229.00 136.82 228.95 137.96 228.92 138.53 C 219.66 138.50 210.39 138.44 201.12 138.56 C 201.08 137.99 201.01 136.84 200.97 136.27 C 202.67 135.71 204.78 135.50 205.76 133.77 C 206.53 131.60 206.49 129.26 206.53 126.99 C 206.47 118.00 206.51 109.01 206.50 100.02 C 205.06 100.00 203.62 99.98 202.19 99.96 C 202.22 99.33 202.28 98.07 202.31 97.44 C 207.09 92.68 209.25 85.81 214.71 81.67 Z" />
<path fill="#37424a" opacity="1.00" d=" M 169.22 95.25 C 175.42 94.09 182.14 94.28 187.90 97.06 C 191.39 98.71 194.23 101.98 194.69 105.89 C 195.69 114.06 194.12 122.40 195.71 130.51 C 196.11 132.84 198.21 133.31 200.23 132.75 C 200.46 137.95 194.29 139.82 190.07 140.03 C 185.43 140.57 181.06 137.77 179.31 133.52 C 176.21 136.67 172.48 139.56 167.98 140.22 C 163.17 141.16 157.32 139.82 154.68 135.36 C 151.74 130.58 153.28 123.97 157.60 120.56 C 163.74 115.60 171.33 113.00 178.54 110.03 C 178.41 106.66 178.85 102.95 176.99 99.95 C 174.67 96.98 169.03 98.34 168.40 102.09 C 168.07 105.22 169.16 108.66 167.39 111.51 C 164.81 116.17 156.12 114.77 156.22 109.02 C 155.34 101.55 162.67 96.44 169.22 95.25 M 171.55 121.38 C 170.74 124.79 170.15 129.29 173.19 131.81 C 174.93 132.46 177.10 131.93 177.77 130.06 C 178.99 124.57 178.40 118.90 178.43 113.33 C 175.31 115.14 172.42 117.74 171.55 121.38 Z" />
<path fill="#37424a" opacity="1.00" d=" M 236.75 102.76 C 243.38 94.04 257.61 91.54 266.09 98.92 C 270.38 102.49 271.77 108.16 272.07 113.49 C 263.75 113.52 255.42 113.47 247.09 113.52 C 247.41 121.41 252.75 129.46 260.91 130.77 C 264.93 131.77 268.80 129.85 271.77 127.30 C 271.75 128.77 271.75 130.23 271.75 131.70 C 268.07 135.61 263.53 139.03 258.12 139.96 C 250.72 141.67 242.44 139.30 237.32 133.61 C 229.70 125.30 229.87 111.46 236.75 102.76 M 249.27 100.30 C 247.23 103.19 247.38 106.89 246.99 110.25 C 250.64 110.08 254.66 110.85 258.04 109.17 C 260.00 106.87 259.40 103.31 258.28 100.75 C 256.71 97.19 251.34 97.32 249.27 100.30 Z" />
</g>
</svg>
